<svg width="42" height="46" viewBox="0 0 42 46" fill="none" xmlns="http://www.w3.org/2000/svg">
<g filter="url(#filter0_d_2_73)">
<path d="M14.6778 3.77625C12.4158 4.39965 10.1692 5.07751 7.93989 5.80925C7.73632 5.87519 7.55537 5.99698 7.41765 6.16074C7.27992 6.3245 7.19096 6.52365 7.16089 6.7355C5.84514 16.6084 8.88514 23.8118 12.5118 28.557C14.0472 30.5862 15.8781 32.3738 17.9434 33.8604C18.7651 34.4399 19.4919 34.8579 20.0643 35.1262C20.3493 35.2616 20.582 35.3519 20.7601 35.4065C20.838 35.4338 20.9184 35.4537 21 35.4659C21.0807 35.4528 21.1601 35.4329 21.2375 35.4065C21.418 35.3519 21.6508 35.2616 21.9358 35.1262C22.5058 34.8579 23.2349 34.4375 24.0566 33.8604C26.1219 32.3738 27.9528 30.5862 29.4883 28.557C33.1149 23.8141 36.1549 16.6084 34.8391 6.7355C34.8093 6.52355 34.7205 6.32427 34.5827 6.16046C34.4449 5.99666 34.2638 5.87494 34.0601 5.80925C32.514 5.30338 29.9039 4.47925 27.3223 3.77862C24.686 3.06375 22.2611 2.53413 21 2.53413C19.7413 2.53413 17.314 3.06375 14.6778 3.77862V3.77625ZM14.046 1.33C16.6229 0.629375 19.3613 0 21 0C22.6388 0 25.3771 0.629375 27.954 1.33C30.5903 2.0425 33.2479 2.88562 34.8106 3.39625C35.464 3.61202 36.0433 4.00773 36.4819 4.53792C36.9205 5.0681 37.2006 5.71126 37.2901 6.3935C38.7056 17.0264 35.421 24.9066 31.4358 30.1198C29.7458 32.3498 27.7307 34.3137 25.4579 35.9456C24.672 36.5104 23.8393 37.0069 22.9689 37.43C22.3039 37.7435 21.589 38 21 38C20.411 38 19.6985 37.7435 19.0311 37.43C18.1607 37.007 17.328 36.5104 16.5421 35.9456C14.2693 34.3136 12.2543 32.3498 10.5643 30.1198C6.57901 24.9066 3.29439 17.0264 4.70989 6.3935C4.7994 5.71126 5.07954 5.0681 5.51814 4.53792C5.95674 4.00773 6.536 3.61202 7.18939 3.39625C9.45797 2.65242 11.7442 1.96347 14.046 1.33V1.33Z" fill="#FE724C"/>
<path d="M27.7783 12.2218C27.8889 12.3321 27.9766 12.4631 28.0365 12.6074C28.0963 12.7517 28.1272 12.9063 28.1272 13.0625C28.1272 13.2187 28.0963 13.3734 28.0365 13.5177C27.9766 13.6619 27.8889 13.793 27.7783 13.9033L20.6533 21.0283C20.543 21.1389 20.4119 21.2266 20.2677 21.2865C20.1234 21.3463 19.9687 21.3772 19.8125 21.3772C19.6563 21.3772 19.5017 21.3463 19.3574 21.2865C19.2131 21.2266 19.0821 21.1389 18.9718 21.0283L15.4093 17.4658C15.2989 17.3554 15.2113 17.2243 15.1515 17.08C15.0918 16.9358 15.061 16.7812 15.061 16.625C15.061 16.4689 15.0918 16.3143 15.1515 16.17C15.2113 16.0258 15.2989 15.8947 15.4093 15.7843C15.5197 15.6739 15.6508 15.5863 15.795 15.5265C15.9393 15.4668 16.0939 15.436 16.25 15.436C16.4062 15.436 16.5608 15.4668 16.705 15.5265C16.8493 15.5863 16.9804 15.6739 17.0908 15.7843L19.8125 18.5084L26.0968 12.2218C26.2071 12.1112 26.3381 12.0235 26.4824 11.9636C26.6267 11.9037 26.7813 11.8729 26.9375 11.8729C27.0937 11.8729 27.2484 11.9037 27.3927 11.9636C27.5369 12.0235 27.668 12.1112 27.7783 12.2218V12.2218Z" fill="#FE724C"/>
</g>
<defs>
<filter id="filter0_d_2_73" x="-2" y="0" width="46" height="46" filterUnits="userSpaceOnUse" color-interpolation-filters="sRGB">
<feFlood flood-opacity="0" result="BackgroundImageFix"/>
<feColorMatrix in="SourceAlpha" type="matrix" values="0 0 0 0 0 0 0 0 0 0 0 0 0 0 0 0 0 0 127 0" result="hardAlpha"/>
<feOffset dy="4"/>
<feGaussianBlur stdDeviation="2"/>
<feComposite in2="hardAlpha" operator="out"/>
<feColorMatrix type="matrix" values="0 0 0 0 0 0 0 0 0 0 0 0 0 0 0 0 0 0 0.25 0"/>
<feBlend mode="normal" in2="BackgroundImageFix" result="effect1_dropShadow_2_73"/>
<feBlend mode="normal" in="SourceGraphic" in2="effect1_dropShadow_2_73" result="shape"/>
</filter>
</defs>
</svg>
